# xmcd
#
# Track frame offsets: 
#        150
#        13226
#        26090
#        37656
#        49196
#        61988
#        74308
#        86468
#        99006
#        112313
#        125923
#        137106
#        145679
#        158484
#        170329
#        181832
#        193652
#        198494
#        209424
#        219608
#        229768
#        239896
#        252288
#        264801
#        279822
#        289378
#        302094
#        315258
#
# Disc length: 4356 seconds
#
# Revision: 0
# Processed by: cddbd v1.5.2PL0 Copyright (c) Steve Scherf et al.
# Submitted via: ExactAudioCopyFreeDBPlugin 1.0
#
DISCID=9611021c
DTITLE=Various Artist - Black Vocal Groups Vol. 9 (1929-1942)
DYEAR=1998
DGENRE=Gospel
TTITLE0=P. C. Johnson and His Singers - Roll, Roll Chariot
TTITLE1=P. C. Johnson and His Singers - We Are Climbing Jacob's Ladder
TTITLE2=P. C. Johnson and His Singers - Hail, Hail, Hail
TTITLE3=P. C. Johnson and His Singers - My Lord Delivered Daniel
TTITLE4=Four Wanderers - Farmer's Life for Me
TTITLE5=Four Wanderers - I Ain't Got Nothing to Lose
TTITLE6=Four Wanderers - You'se My Lady Love
TTITLE7=Four Wanderers - Street Urchin'
TTITLE8=Four Wanderers - Preaching of the Elder
TTITLE9=Four Wanderers - In My Father's House
TTITLE10=Deep River Plantation Singers - Roll, Jordan, Roll
TTITLE11=Dixie Symphony Four - Swanee River
TTITLE12=Dixie Symphony Four - Little David Play on Your Harp
TTITLE13=Dixie Symphony Four - Good News, the Chariot's Coming
TTITLE14=Dixie Symphony Four - Leaning on the Lord
TTITLE15=Dixie Symphony Four - Swing Low, Sweet Chariot
TTITLE16=Dixie Symphony Four - Sweet Kentucky Babe
TTITLE17=Plantation Singers - Ride Up in the Chariot
TTITLE18=Plantation Singers - Good News
TTITLE19=Plantation Singers - Glory Glory Hallelujah
TTITLE20=Plantation Singers - I Wanna Go to Heav'n
TTITLE21=Morris Brown Quartet - You Got to Walk That Lonesome Valley
TTITLE22=Morris Brown Quartet - Rock of Ages
TTITLE23=Silvertone Quartet - I Don't Know What I'd Do Without the Lor
TTITLE23=d
TTITLE24=Three Gospel Tones - I Just Can't Keep It to Myself Alone
TTITLE25=Three Gospel Tones - He Knows How Much We Can Bear
TTITLE26=Royal Harmony Quartet - (We'll Be Singing Hallelujah) Marchin
TTITLE26=g Through Berlin
TTITLE27=Royal Harmony Quartet - Praise the Lord and Pass the Ammuniti
TTITLE27=on
EXTD=
EXTT0=
EXTT1=
EXTT2=
EXTT3=
EXTT4=
EXTT5=
EXTT6=
EXTT7=
EXTT8=
EXTT9=
EXTT10=
EXTT11=
EXTT12=
EXTT13=
EXTT14=
EXTT15=
EXTT16=
EXTT17=
EXTT18=
EXTT19=
EXTT20=
EXTT21=
EXTT22=
EXTT23=
EXTT24=
EXTT25=
EXTT26=
EXTT27=
PLAYORDER=
